<svg width="71" height="72" viewBox="0 0 71 72" fill="none" xmlns="http://www.w3.org/2000/svg">
<path fill-rule="evenodd" clip-rule="evenodd" d="M33.0816 37.1188L39.4938 38.8392C42.4863 39.6421 43.7327 42.1175 42.898 44.952C42.3444 47.0208 40.9216 48.6271 39.0208 48.8817C38.3034 48.995 37.358 48.8177 36.5744 48.6075L30.4472 46.9636L33.0816 37.1188ZM44.5357 26.276C45.6271 27.3335 45.8866 28.9323 45.4475 30.573C44.7603 33.1413 42.7868 34.5233 40.222 33.8352L34.3796 32.2677L36.6896 23.6355L41.8195 25.0119C42.9593 25.3177 43.9187 25.7282 44.5357 26.276ZM35.8272 53.6829C34.9363 57.0122 34.4908 58.6768 34.4908 58.6768C34.4908 58.6768 33.3746 58.3774 31.1421 57.7784L32.4785 52.7844L28.9875 51.8478C28.0966 55.1771 27.6511 56.8418 27.6511 56.8418C27.6511 56.8418 26.5349 56.5423 24.3026 55.9433L25.6389 50.9494C21.1741 49.7515 18.9417 49.1525 18.9417 49.1525C18.9417 49.1525 19.3489 47.6307 20.1634 44.587L22.2296 45.1414C23.2981 45.4281 24.311 44.7822 24.5783 43.7835L29.9809 23.5944C30.2672 22.5243 29.6223 21.5103 28.6249 21.2427C27.2474 20.8731 26.5586 20.6883 26.5586 20.6883C26.5586 20.6883 26.9659 19.1663 27.7805 16.1224L34.4777 17.9193C35.3686 14.5901 35.8141 12.9256 35.8141 12.9256C35.8141 12.9256 36.9302 13.225 39.1626 13.824L37.8263 18.8177L41.3173 19.7544C42.2082 16.4252 42.6536 14.7606 42.6536 14.7606C42.6536 14.7606 43.7698 15.0601 46.0023 15.6591L44.6469 20.7241C46.3377 21.2542 47.634 21.8315 48.8351 22.7654C51.522 24.7096 52.8437 28.0461 51.851 31.7559C51.011 34.895 48.8986 37.0808 45.8999 37.7289C49.2801 39.9358 50.0597 43.5855 49.1243 47.0813C47.8505 51.5565 43.9798 54.0353 40.112 54.221C38.5728 54.2667 37.2521 54.0652 35.8272 53.6829ZM2.068 26.8863C-2.93367 45.5772 8.17537 64.8443 26.8421 69.8526C45.5086 74.8608 64.7504 63.7369 69.7521 45.0459C74.7538 26.355 63.6445 7.08806 44.978 2.07983C26.3113 -2.92845 7.06967 8.19536 2.068 26.8863Z" fill="white"/>
</svg>
