<svg width="28" height="46" viewBox="0 0 28 46" fill="none" xmlns="http://www.w3.org/2000/svg">
<path fill-rule="evenodd" clip-rule="evenodd" d="M0.144653 23L14.3552 0.263123V16.878L0.144653 23ZM27.8552 23L14.3552 16.8861V0.263123L27.8552 23Z" fill="#828384"/>
<path fill-rule="evenodd" clip-rule="evenodd" d="M14.3552 31.5261L0.144653 23.5334L14.3552 17.3156V31.5261ZM27.8552 23.5348L14.3552 31.5261V17.3156L27.8552 23.5348Z" fill="#343535"/>
<path fill-rule="evenodd" clip-rule="evenodd" d="M0.144653 26.5526L14.3552 34.7557V45.7368L0.144653 26.5526ZM27.8552 26.5526L14.3552 45.7368V34.7548L27.8552 26.5526Z" fill="#828384"/>
<path fill-rule="evenodd" clip-rule="evenodd" d="M27.8552 23L14.3552 16.8861V0.263123L27.8552 23Z" fill="white" fill-opacity="0.7"/>
<path fill-rule="evenodd" clip-rule="evenodd" d="M27.8552 23.5348L14.3552 17.3156V31.5261L27.8552 23.5348Z" fill="#131313"/>
<path fill-rule="evenodd" clip-rule="evenodd" d="M27.8552 26.5526L14.3552 34.7548V45.7368L27.8552 26.5526Z" fill="white" fill-opacity="0.7"/>
</svg>
