<svg width="40" height="42" viewBox="0 0 40 42" fill="none" xmlns="http://www.w3.org/2000/svg">
<path d="M35.035 22.9975C35.12 22.36 35.1625 21.7012 35.1625 21C35.1625 20.32 35.12 19.64 35.0137 19.0025L39.3275 15.645C39.71 15.3475 39.8162 14.7737 39.5825 14.3487L35.5025 7.29373C35.2475 6.82623 34.7162 6.67747 34.2487 6.82622L29.17 8.86622C28.1075 8.05872 26.9812 7.37872 25.7275 6.86872L24.9625 1.47123C24.8775 0.961225 24.4525 0.599976 23.9425 0.599976H15.7825C15.2725 0.599976 14.8687 0.961225 14.7837 1.47123L14.0187 6.86872C12.765 7.37872 11.6175 8.07997 10.5762 8.86622L5.49748 6.82622C5.02998 6.65622 4.49873 6.82623 4.24373 7.29373L0.184977 14.3487C-0.0700232 14.795 0.0149766 15.3475 0.439977 15.645L4.75373 19.0025C4.64748 19.64 4.56248 20.3412 4.56248 21C4.56248 21.6587 4.60498 22.36 4.71123 22.9975L0.397477 26.355C0.0149766 26.6525 -0.0912732 27.2262 0.142477 27.6512L4.22248 34.7062C4.47748 35.1737 5.00873 35.3225 5.47623 35.1737L10.555 33.1337C11.6175 33.9412 12.7437 34.6212 13.9975 35.1312L14.7625 40.5287C14.8687 41.0387 15.2725 41.4 15.7825 41.4H23.9425C24.4525 41.4 24.8775 41.0387 24.9412 40.5287L25.7062 35.1312C26.96 34.6212 28.1075 33.9412 29.1487 33.1337L34.2275 35.1737C34.695 35.3437 35.2262 35.1737 35.4812 34.7062L39.5612 27.6512C39.8162 27.1837 39.71 26.6525 39.3062 26.355L35.035 22.9975ZM19.8625 28.65C15.655 28.65 12.2125 25.2075 12.2125 21C12.2125 16.7925 15.655 13.35 19.8625 13.35C24.07 13.35 27.5125 16.7925 27.5125 21C27.5125 25.2075 24.07 28.65 19.8625 28.65Z" fill="white" fill-opacity="0.8"/>
</svg>
